<svg width="26" height="28" viewBox="0 0 26 28" fill="none" xmlns="http://www.w3.org/2000/svg">
<path fill-rule="evenodd" clip-rule="evenodd" d="M1.26772 7.28056C1.28505 6.96855 1.54312 6.72443 1.85561 6.72443H24.145C24.4575 6.72443 24.7155 6.96855 24.7329 7.28056L25.8473 27.341C25.8563 27.5026 25.7984 27.6607 25.6872 27.7783C25.576 27.8958 25.4213 27.9624 25.2594 27.9624H0.741143C0.579315 27.9624 0.42462 27.8958 0.313408 27.7783C0.202197 27.6607 0.144275 27.5026 0.153251 27.341L1.26772 7.28056ZM2.41261 7.90202L1.36356 26.7848H24.637L23.588 7.90202H2.41261Z" fill="#0D0D0D"/>
<path fill-rule="evenodd" clip-rule="evenodd" d="M13.0029 1.21519C10.2633 1.21519 8.01939 3.45913 8.01939 6.19873V12.8855H6.8418V6.19873C6.8418 2.80876 9.61296 0.0375977 13.0029 0.0375977C16.3929 0.0375977 19.1641 2.80876 19.1641 6.19873V12.8855H17.9865V6.19873C17.9865 3.45913 15.7425 1.21519 13.0029 1.21519Z" fill="#0D0D0D"/>
</svg>
