<svg width="121" height="120" viewBox="0 0 121 120" fill="none" xmlns="http://www.w3.org/2000/svg">
<path d="M36.2617 22.7257C36.2617 18.4589 39.7207 15 43.9875 15H82.6162C86.883 15 90.3419 18.4589 90.3419 22.7257V111.893C90.3419 116.16 86.883 119.619 82.6162 119.619H43.9875C39.7207 119.619 36.2617 116.16 36.2617 111.893V22.7257Z" fill="white"/>
<path fill-rule="evenodd" clip-rule="evenodd" d="M82.6162 17.9886H43.9875C41.3712 17.9886 39.2503 20.1095 39.2503 22.7257V111.893C39.2503 114.51 41.3712 116.631 43.9875 116.631H82.6162C85.2324 116.631 87.3533 114.51 87.3533 111.893V22.7257C87.3533 20.1095 85.2324 17.9886 82.6162 17.9886ZM43.9875 15C39.7207 15 36.2617 18.4589 36.2617 22.7257V111.893C36.2617 116.16 39.7207 119.619 43.9875 119.619H82.6162C86.883 119.619 90.3419 116.16 90.3419 111.893V22.7257C90.3419 18.4589 86.883 15 82.6162 15H43.9875Z" fill="#0D0D0D"/>
<rect x="42.4414" y="22.7358" width="41.719" height="82.1057" rx="3.10207" fill="#FF462D"/>
<rect x="51.7129" y="15.7725" width="23.1772" height="4.63544" rx="2.31772" fill="#0D0D0D"/>
<rect x="52.4863" y="109.122" width="21.6321" height="3.0903" rx="1.54515" fill="#0D0D0D"/>
<rect y="47.4268" width="64.7533" height="21.9165" rx="10.9583" fill="#0D0D0D"/>
<line x1="13.9512" y1="54.3965" x2="35.2624" y2="54.3965" stroke="white" stroke-width="2" stroke-linecap="round"/>
<line x1="13.9512" y1="60.3735" x2="50.8032" y2="60.3735" stroke="white" stroke-width="2" stroke-linecap="round"/>
<rect x="76.1699" y="69.3433" width="44.8292" height="44.8292" rx="5" fill="#0D0D0D"/>
<line x1="84.1445" y1="99.2256" x2="113.027" y2="99.2256" stroke="white" stroke-width="2" stroke-linecap="round"/>
<line x1="88.1289" y1="105.203" x2="109.042" y2="105.203" stroke="white" stroke-width="2" stroke-linecap="round"/>
<circle cx="99.0829" cy="85.2826" r="7.96964" fill="white"/>
</svg>
