<svg width="98" height="120" viewBox="0 0 98 120" fill="none" xmlns="http://www.w3.org/2000/svg">
<rect x="1.6" y="12.6" width="75.052" height="105.8" rx="6.4" fill="white" stroke="black" stroke-width="3.2"/>
<rect x="9.87695" y="76.9312" width="54.7721" height="3.74652" rx="1.87326" fill="#CBCBCB"/>
<rect x="9.87695" y="85.6948" width="41.0673" height="3.74652" rx="1.87326" fill="#CBCBCB"/>
<rect x="9.87695" y="94.458" width="49.1556" height="3.74652" rx="1.87326" fill="#CBCBCB"/>
<rect x="9.87695" y="20.2432" width="58.499" height="51.4428" rx="5" fill="#0D0D0D"/>
<circle cx="39.1265" cy="107.51" r="4.31401" fill="#0D0D0D"/>
<path d="M81.3241 85.7598C85.5359 84.4086 89.2084 81.7522 91.81 78.175C94.4116 74.5978 95.8073 70.2855 95.795 65.8623C95.795 60.5852 93.6987 55.5242 89.9672 51.7927C86.2357 48.0612 81.1747 45.9648 75.8975 45.9648C70.6204 45.9648 65.5594 48.0612 61.8279 51.7927C58.0964 55.5242 56.0001 60.5852 56.0001 65.8623C55.9878 70.2855 57.3835 74.5978 59.9851 78.175C62.5867 81.7522 66.2592 84.4086 70.471 85.7598" fill="#FFD12D"/>
<path d="M81.3241 85.7598C85.5359 84.4086 89.2084 81.7522 91.81 78.175C94.4116 74.5978 95.8073 70.2855 95.795 65.8623C95.795 60.5852 93.6987 55.5242 89.9672 51.7927C86.2357 48.0612 81.1747 45.9648 75.8975 45.9648C70.6204 45.9648 65.5594 48.0612 61.8279 51.7927C58.0964 55.5242 56.0001 60.5852 56.0001 65.8623C55.9878 70.2855 57.3835 74.5978 59.9851 78.175C62.5867 81.7522 66.2592 84.4086 70.471 85.7598" stroke="#FFD12D" stroke-width="3.6056" stroke-linecap="round" stroke-linejoin="round"/>
<path d="M72.2793 85.7595V67.6709H79.5147V85.7595" stroke="white" stroke-width="3.6056" stroke-linecap="round" stroke-linejoin="round"/>
<path d="M72.2804 67.671H68.6626C67.9471 67.671 67.2477 67.4588 66.6527 67.0613C66.0578 66.6638 65.5941 66.0988 65.3203 65.4377C65.0465 64.7767 64.9748 64.0493 65.1144 63.3475C65.254 62.6457 65.5986 62.0011 66.1045 61.4952C66.6105 60.9892 67.2551 60.6447 67.9569 60.5051C68.6586 60.3655 69.386 60.4371 70.0471 60.7109C70.7081 60.9847 71.2731 61.4484 71.6707 62.0434C72.0682 62.6383 72.2804 63.3378 72.2804 64.0533V67.671Z" stroke="white" stroke-width="3.6056" stroke-linecap="round" stroke-linejoin="round"/>
<path d="M79.5137 67.671H83.1314C83.8469 67.671 84.5464 67.4588 85.1413 67.0613C85.7362 66.6638 86.1999 66.0988 86.4737 65.4377C86.7475 64.7767 86.8192 64.0493 86.6796 63.3475C86.54 62.6457 86.1955 62.0011 85.6895 61.4952C85.1836 60.9892 84.5389 60.6447 83.8372 60.5051C83.1354 60.3655 82.408 60.4371 81.747 60.7109C81.0859 60.9847 80.5209 61.4484 80.1234 62.0434C79.7258 62.6383 79.5137 63.3378 79.5137 64.0533V67.671Z" stroke="white" stroke-width="3.6056" stroke-linecap="round" stroke-linejoin="round"/>
<path d="M81.3239 96.5067C81.3239 97.9459 80.7521 99.3262 79.7345 100.344C78.7168 101.362 77.3365 101.933 75.8973 101.933C74.4581 101.933 73.0778 101.362 72.0601 100.344C71.0424 99.3262 70.4707 97.9459 70.4707 96.5067V87.4624H81.3239V96.5067Z" fill="#0D0D0D" stroke="#0D0D0D" stroke-width="3.6056" stroke-linecap="round" stroke-linejoin="round"/>
<rect x="68.6621" y="94.0269" width="14.4705" height="2.62888" fill="white"/>
</svg>
