<svg width="214" height="214" viewBox="0 0 214 214" fill="none" xmlns="http://www.w3.org/2000/svg">
<circle cx="107" cy="107" r="106.349" stroke="#0D0D0D" stroke-width="1.30219"/>
<path d="M40.3333 88.288L39.7985 91.6534L36.1845 92.3699L35.1187 99.0765L38.3325 100.878L37.7938 104.268L21.8461 95.2792L22.3848 91.8896L40.3333 88.288ZM26.6469 94.2797L32.2935 97.4856L33.0053 93.0065L26.6469 94.2797Z" fill="#0D0D0D"/>
<path d="M36.6146 73.2643C37.2835 72.9176 37.9944 72.7288 38.7471 72.6981C39.506 72.6521 40.2416 72.773 40.9538 73.0608C41.8175 73.4098 42.535 73.9464 43.1061 74.6707C43.6681 75.3737 44.025 76.1701 44.1767 77.0599C44.3194 77.9284 44.2223 78.7793 43.8856 79.6128L42.1774 83.8406L42.2002 83.8498L40.9971 86.8275L25.0859 80.3989L27.8502 73.5571C28.1686 72.7691 28.667 72.1244 29.3456 71.623C30.0241 71.1215 30.7915 70.8146 31.6477 70.7023C32.4888 70.5838 33.3033 70.6837 34.0913 71.0021C34.6217 71.2164 35.1047 71.5261 35.5403 71.9312C35.9669 72.3151 36.325 72.7595 36.6146 73.2643ZM29.1075 78.56L32.6762 80.0019L34.2147 76.1285C34.3922 75.6891 34.3786 75.2429 34.1738 74.79C33.96 74.3158 33.603 73.9777 33.1029 73.7756C32.5877 73.5675 32.0961 73.5627 31.628 73.7614C31.1661 73.9449 30.8463 74.2564 30.6688 74.6959L29.1075 78.56ZM41.067 78.474C41.263 77.9891 41.2343 77.4928 40.9812 76.9851C40.719 76.4561 40.3227 76.0845 39.7923 75.8702C39.2619 75.6559 38.7263 75.651 38.1853 75.8555C37.6354 76.0387 37.2624 76.3728 37.0665 76.8577L35.3584 81.0855L39.3589 82.7018L41.067 78.474Z" fill="#0D0D0D"/>
<path d="M50.6186 66.6732C49.6896 67.9706 48.514 68.9411 47.0918 69.5849C45.6563 70.2192 44.157 70.4673 42.5937 70.3292C41.0399 70.1778 39.6143 69.6377 38.317 68.7087C37.0196 67.7797 36.0491 66.6041 35.4053 65.1819C34.771 63.7465 34.5295 62.2519 34.6809 60.6981C34.819 59.1348 35.3525 57.7045 36.2815 56.4071C37.2104 55.1098 38.3926 54.144 39.8281 53.5097C41.2503 52.8659 42.7383 52.6197 44.2921 52.771C45.8554 52.9091 47.2857 53.4427 48.583 54.3716C49.8804 55.3006 50.8462 56.4828 51.4805 57.9183C52.1243 59.3405 52.3771 60.8332 52.239 62.3965C52.0877 63.9503 51.5475 65.3758 50.6186 66.6732ZM48.0172 64.8105C48.6049 63.9897 48.9448 63.0816 49.0368 62.0861C49.1288 61.0906 48.971 60.1365 48.5632 59.2237C48.1554 58.3109 47.5411 57.5607 46.7204 56.973C45.8996 56.3852 44.9915 56.0454 43.996 55.9534C43.0005 55.8613 42.0463 56.0192 41.1335 56.427C40.2208 56.8348 39.4705 57.449 38.8828 58.2698C38.2951 59.0906 37.9505 60.0053 37.849 61.0141C37.757 62.0096 37.9148 62.9637 38.3226 63.8765C38.7304 64.7893 39.3447 65.5395 40.1654 66.1272C40.9862 66.715 41.8943 67.0548 42.8898 67.1468C43.8853 67.2389 44.8395 67.081 45.7522 66.6732C46.6745 66.2522 47.4295 65.6313 48.0172 64.8105Z" fill="#0D0D0D"/>
<path d="M54.0304 39.2747L56.4711 37.1872L63.865 45.8323C64.6405 46.7391 65.1136 47.7324 65.2844 48.8122C65.4446 49.8796 65.3158 50.936 64.898 51.9815C64.4697 53.0146 63.7773 53.9401 62.8208 54.7581C61.8644 55.5761 60.8427 56.1166 59.7557 56.3796C58.658 56.6301 57.5944 56.5935 56.5648 56.2698C55.5245 55.9336 54.6166 55.3121 53.8411 54.4054L46.4473 45.7603L48.888 43.6728L56.2819 52.3179C56.8555 52.9886 57.5598 53.3218 58.3948 53.3174C59.2316 53.2899 60.0164 52.9628 60.7493 52.336C61.5318 51.6667 61.9829 50.9368 62.1025 50.1463C62.2346 49.3451 62.0085 48.603 61.4242 47.9198L54.0304 39.2747Z" fill="#0D0D0D"/>
<path d="M71.5127 27.6461L72.9415 30.3212L68.7778 32.545L75.4146 44.9714L72.61 46.4693L65.9732 34.0429L61.8311 36.2552L60.4023 33.5801L71.5127 27.6461Z" fill="#0D0D0D"/>
<path d="M98.047 21.5385L98.0391 21.4901L101.184 20.9718L103.975 37.9041L100.83 38.4224L98.988 27.2471L95.5911 35.882L94.8171 36.0096L88.8286 28.9217L90.6707 40.097L87.5019 40.6193L84.7109 23.687L87.8797 23.1647L87.8877 23.2131L87.9523 23.1527L94.3509 30.7694L97.9665 21.5021L98.047 21.5385Z" fill="#0D0D0D"/>
<path d="M110.853 31.1312L110.561 35.2988L117.744 35.8016L117.531 38.8415L107.137 38.1139L108.338 20.9531L118.61 21.6722L118.397 24.7121L111.337 24.2178L111.064 28.1158L117.511 28.5671L117.3 31.5825L110.853 31.1312Z" fill="#0D0D0D"/>
<path d="M154.732 56.9007L152.005 54.8575L153.057 51.3267L147.623 47.2551L144.53 49.2572L141.783 47.1993L157.173 37.2871L159.92 39.3449L154.732 56.9007ZM155.818 41.9996L150.348 45.4984L153.977 48.2177L155.818 41.9996Z" fill="#0D0D0D"/>
<path d="M169.771 60.6058C169.767 61.3592 169.604 62.0763 169.281 62.7572C168.969 63.4505 168.52 64.0456 167.935 64.5426C167.224 65.1452 166.416 65.5311 165.509 65.7002C164.625 65.8712 163.754 65.8172 162.896 65.538C162.061 65.2608 161.352 64.7794 160.771 64.094L157.821 60.6168L157.802 60.6327L155.725 58.1837L168.811 47.082L173.584 52.709C174.134 53.3571 174.473 54.0981 174.602 54.9319C174.731 55.7657 174.646 56.5878 174.348 57.3982C174.062 58.1981 173.595 58.8729 172.947 59.4227C172.51 59.7927 172.012 60.0765 171.45 60.274C170.912 60.4733 170.352 60.5839 169.771 60.6058ZM168.57 51.4976L165.635 53.9875L168.35 57.1497C168.656 57.5111 169.058 57.7064 169.554 57.7355C170.073 57.7665 170.539 57.6076 170.95 57.2586C171.374 56.8992 171.606 56.466 171.648 55.9592C171.7 55.4649 171.573 55.037 171.266 54.6756L168.57 51.4976ZM163.089 62.1274C163.427 62.5262 163.88 62.7315 164.447 62.7432C165.037 62.7569 165.551 62.5787 165.987 62.2086C166.423 61.8385 166.676 61.3665 166.747 60.7925C166.84 60.2204 166.717 59.7349 166.379 59.3361L163.429 55.859L160.139 58.6502L163.089 62.1274Z" fill="#0D0D0D"/>
<path d="M169.151 76.0511C168.431 74.6256 168.114 73.1327 168.202 71.5724C168.304 70.0047 168.779 68.5592 169.626 67.2361C170.48 65.9274 171.62 64.9127 173.045 64.192C174.471 63.4712 175.964 63.1548 177.524 63.2425C179.092 63.3448 180.53 63.8231 181.839 64.6774C183.162 65.5243 184.184 66.6605 184.904 68.086C185.625 69.5115 185.934 71.0081 185.832 72.5758C185.744 74.1361 185.273 75.5706 184.419 76.8792C183.572 78.2024 182.436 79.2243 181.01 79.9451C179.585 80.6658 178.088 80.9751 176.521 80.8728C174.96 80.785 173.519 80.3176 172.195 79.4707C170.887 78.6164 169.872 77.4766 169.151 76.0511ZM172.01 74.6059C172.466 75.5077 173.114 76.2301 173.955 76.773C174.795 77.316 175.715 77.618 176.714 77.6791C177.713 77.7403 178.663 77.5428 179.565 77.0868C180.467 76.6309 181.189 75.9825 181.732 75.1418C182.275 74.3011 182.577 73.3813 182.638 72.3823C182.7 71.3834 182.502 70.433 182.046 69.5312C181.59 68.6294 180.938 67.8997 180.09 67.3422C179.249 66.7993 178.33 66.4973 177.331 66.4361C176.332 66.375 175.381 66.5724 174.479 67.0284C173.578 67.4844 172.855 68.1328 172.312 68.9735C171.769 69.8142 171.467 70.734 171.406 71.7329C171.352 72.7464 171.554 73.704 172.01 74.6059Z" fill="#0D0D0D"/>
<path d="M191.789 92.059L192.463 95.2062L181.315 97.595C180.146 97.8456 179.045 97.7884 178.012 97.4234C176.995 97.055 176.125 96.4372 175.404 95.5701C174.698 94.6994 174.213 93.6475 173.948 92.4142C173.684 91.1809 173.696 90.0226 173.983 88.9391C174.286 87.8523 174.826 86.9325 175.603 86.1797C176.395 85.4235 177.377 84.9201 178.546 84.6695L189.693 82.2808L190.368 85.428L179.22 87.8168C178.355 88.0022 177.725 88.4638 177.331 89.2017C176.955 89.9522 176.869 90.7999 177.072 91.7449C177.288 92.754 177.716 93.4999 178.355 93.9827C178.998 94.4815 179.76 94.6365 180.641 94.4477L191.789 92.059Z" fill="#0D0D0D"/>
<path d="M193.105 112.526L190.066 112.575L189.989 107.845L175.87 108.074L175.818 104.887L189.937 104.658L189.861 99.9517L192.9 99.9023L193.105 112.526Z" fill="#0D0D0D"/>
<path d="M187.075 138.943L187.121 138.959L186.133 141.986L169.83 136.666L170.818 133.639L181.578 137.15L175.483 130.162L175.727 129.416L184.77 127.368L174.01 123.857L175.006 120.806L191.309 126.126L190.313 129.177L190.266 129.162L190.29 129.247L180.589 131.415L187.144 138.889L187.075 138.943Z" fill="#0D0D0D"/>
<path d="M172.495 145.862L168.954 143.665L165.168 149.769L162.584 148.167L168.063 139.333L182.646 148.379L177.232 157.108L174.649 155.506L178.37 149.506L175.058 147.451L171.659 152.93L169.097 151.341L172.495 145.862Z" fill="#0D0D0D"/>
<path d="M129.323 172.786L132.398 171.319L135.038 173.889L141.166 170.965L140.828 167.296L143.926 165.818L145.564 184.051L142.466 185.529L129.323 172.786ZM142.019 180.663L141.458 174.194L137.365 176.147L142.019 180.663Z" fill="#0D0D0D"/>
<path d="M119.045 184.367C118.381 184.012 117.822 183.534 117.37 182.931C116.902 182.332 116.585 181.657 116.419 180.907C116.217 179.998 116.252 179.103 116.525 178.222C116.786 177.36 117.24 176.615 117.887 175.986C118.522 175.376 119.278 174.974 120.156 174.779L124.607 173.79L124.602 173.766L127.737 173.07L131.457 189.823L124.253 191.422C123.424 191.607 122.61 191.561 121.812 191.286C121.015 191.012 120.327 190.553 119.749 189.911C119.175 189.286 118.796 188.558 118.611 187.728C118.487 187.17 118.469 186.596 118.556 186.008C118.63 185.439 118.794 184.892 119.045 184.367ZM127.663 187.551L126.829 183.794L122.765 184.721C122.303 184.824 121.943 185.088 121.686 185.514C121.416 185.958 121.34 186.444 121.457 186.971C121.577 187.513 121.852 187.921 122.281 188.194C122.694 188.471 123.132 188.558 123.594 188.455L127.663 187.551ZM120.815 177.746C120.304 177.86 119.911 178.165 119.637 178.661C119.349 179.177 119.268 179.714 119.392 180.272C119.516 180.831 119.815 181.275 120.29 181.605C120.753 181.954 121.239 182.072 121.75 181.958L126.201 180.97L125.266 176.758L120.815 177.746Z" fill="#0D0D0D"/>
<path d="M105.688 175.643C107.289 175.675 108.76 176.097 110.101 176.908C111.442 177.736 112.499 178.837 113.273 180.209C114.03 181.581 114.393 183.068 114.361 184.67C114.329 186.272 113.907 187.743 113.095 189.084C112.267 190.424 111.167 191.473 109.795 192.231C108.422 193.004 106.935 193.375 105.334 193.343C103.732 193.311 102.261 192.881 100.92 192.053C99.5795 191.241 98.5304 190.149 97.773 188.777C96.9993 187.405 96.6285 185.918 96.6605 184.316C96.6925 182.714 97.1225 181.243 97.9505 179.903C98.7621 178.562 99.8542 177.505 101.227 176.731C102.599 175.974 104.086 175.611 105.688 175.643ZM105.623 178.854C104.61 178.834 103.665 179.069 102.789 179.558C101.913 180.047 101.212 180.72 100.688 181.576C100.164 182.432 99.8923 183.367 99.872 184.38C99.8517 185.393 100.086 186.338 100.576 187.215C101.065 188.091 101.738 188.791 102.594 189.315C103.45 189.839 104.384 190.111 105.398 190.132C106.411 190.152 107.364 189.917 108.257 189.428C109.133 188.939 109.833 188.266 110.357 187.41C110.881 186.554 111.153 185.62 111.174 184.606C111.194 183.593 110.959 182.648 110.47 181.772C109.981 180.895 109.308 180.195 108.452 179.671C107.579 179.147 106.637 178.875 105.623 178.854Z" fill="#0D0D0D"/>
<path d="M81.0982 189.224L77.9998 188.379L80.9918 177.405C81.3056 176.254 81.861 175.304 82.6579 174.556C83.4505 173.823 84.3965 173.336 85.4959 173.093C86.5911 172.867 87.7457 172.919 88.9598 173.25C90.174 173.581 91.1953 174.122 92.0239 174.873C92.8482 175.64 93.4159 176.54 93.7271 177.574C94.0339 178.623 94.0304 179.723 93.7166 180.874L90.7246 191.849L87.6262 191.004L90.6182 180.029C90.8503 179.178 90.7299 178.408 90.2568 177.72C89.7636 177.044 89.0519 176.578 88.1216 176.325C87.1282 176.054 86.271 176.091 85.55 176.437C84.8132 176.778 84.3266 177.382 84.0902 178.25L81.0982 189.224Z" fill="#0D0D0D"/>
<path d="M61.9401 180.675L63.3514 177.944L67.6013 180.141L74.1568 167.457L77.0194 168.937L70.4639 181.62L74.6917 183.806L73.2804 186.536L61.9401 180.675Z" fill="#0D0D0D"/>
<path d="M41.0136 163.682L40.9783 163.716L38.7793 161.421L51.135 149.58L53.3341 151.875L45.1793 159.69L54.1975 157.616L54.7388 158.181L52.2838 167.103L60.4386 159.288L62.6546 161.6L50.2988 173.441L48.0829 171.129L48.1182 171.095L48.0321 171.076L50.6908 161.519L41.0291 163.769L41.0136 163.682Z" fill="#0D0D0D"/>
<path d="M42.3134 147.114L45.9018 144.995L42.2486 138.81L44.866 137.264L50.1525 146.214L35.377 154.941L30.1527 146.097L32.7701 144.551L36.361 150.63L39.7172 148.648L36.438 143.096L39.0343 141.563L42.3134 147.114Z" fill="#0D0D0D"/>
</svg>
