<svg width="156" height="120" viewBox="0 0 156 120" fill="none" xmlns="http://www.w3.org/2000/svg">
<g clip-path="url(#clip0)">
<rect x="2.07237" y="17.0724" width="128.196" height="100.855" rx="11.7434" fill="white" stroke="#0D0D0D" stroke-width="4.14474"/>
<circle cx="81.5141" cy="49.227" r="8.28947" fill="#0D0D0D"/>
<rect x="93.9492" y="46.4639" width="24.8684" height="5.52632" rx="2.76316" fill="#CBCBCB"/>
<rect x="73.2246" y="63.9194" width="45.5921" height="3.7597" rx="1.87985" fill="#CBCBCB"/>
<rect x="73.2246" y="72.7134" width="45.5921" height="3.7597" rx="1.87985" fill="#CBCBCB"/>
<rect x="73.2246" y="81.5073" width="45.5921" height="3.7597" rx="1.87985" fill="#CBCBCB"/>
<rect x="73.2246" y="90.3013" width="45.5921" height="3.7597" rx="1.87985" fill="#CBCBCB"/>
<rect x="11.0527" y="25.7759" width="56.4026" height="83.4473" rx="5.52632" fill="#51B6FF"/>
<path d="M24.5798 79.8417L21.9414 88.774L27.0317 89.7913L56.6189 88.774C56.5561 88.2085 56.4304 87.0399 56.4304 86.8891C56.4304 86.7007 54.5836 82.8562 54.4705 82.6301C54.3801 82.4492 52.8749 79.7405 52.1337 78.4087L47.347 73.5089L40.5249 72.1528L31.4415 74.4514L24.5798 79.8417Z" fill="white"/>
<path d="M39.2526 67.7733C32.82 67.7733 27.5859 62.5392 27.5859 56.1066C27.5859 49.674 32.82 44.4399 39.2526 44.4399C45.6852 44.4399 50.9193 49.674 50.9193 56.1066C50.9193 62.5392 45.6852 67.7733 39.2526 67.7733ZM30.6438 52.8547C30.2448 53.8924 30.0408 54.9948 30.0421 56.1066C30.0447 58.5486 31.0159 60.8898 32.7427 62.6166C34.4694 64.3433 36.8106 65.3145 39.2526 65.3171C41.6389 65.3143 43.9312 64.3866 45.6478 62.729C47.3644 61.0715 48.3718 58.8131 48.4582 56.4284C46.6274 57.0187 44.7155 57.3187 42.7919 57.3175C38.3389 57.3318 34.0285 55.7483 30.6438 52.8547V52.8547ZM31.8547 50.6319C34.8503 53.3425 38.7446 54.8459 42.7845 54.8515C44.6438 54.8515 46.4614 54.5371 48.193 53.9157C47.7028 51.9142 46.5556 50.1349 44.9348 48.8623C43.314 47.5897 41.3133 46.8974 39.2526 46.8961C37.813 46.8957 36.3936 47.2336 35.1085 47.8825C33.8235 48.5314 32.709 49.4732 31.8547 50.6319V50.6319Z" fill="white"/>
<path d="M22.0601 90.5598C21.7344 90.5598 21.422 90.4304 21.1917 90.2001C20.9614 89.9698 20.832 89.6574 20.832 89.3317C20.832 79.1756 29.0969 70.9106 39.2531 70.9106C49.4092 70.9106 57.6741 79.1756 57.6741 89.3317C57.6741 89.6574 57.5447 89.9698 57.3144 90.2001C57.0841 90.4304 56.7718 90.5598 56.4461 90.5598H22.0601ZM55.1713 88.1036C54.545 79.7896 47.6703 73.3668 39.2531 73.3668C30.8359 73.3668 23.9612 79.7896 23.3348 88.1036H55.1713Z" fill="white"/>
<circle cx="39.2524" cy="56.2603" r="9.79931" fill="white"/>
<circle cx="126.748" cy="76.1613" r="18.2736" fill="white"/>
<path d="M154.785 105.718C154.58 105.719 154.377 105.678 154.187 105.6C153.998 105.521 153.826 105.406 153.682 105.26L140.101 91.679C136.405 94.8626 131.689 96.6123 126.811 96.6092C115.548 96.6092 106.383 87.4442 106.383 76.1806C106.383 64.9169 115.548 55.752 126.811 55.752C138.075 55.752 147.24 64.9169 147.24 76.1806C147.24 81.0733 145.495 85.764 142.31 89.47L155.891 103.051C156.037 103.195 156.153 103.367 156.233 103.556C156.312 103.746 156.353 103.949 156.353 104.154C156.353 104.36 156.312 104.563 156.233 104.752C156.153 104.942 156.037 105.114 155.891 105.258C155.598 105.552 155.2 105.717 154.785 105.718V105.718ZM126.809 58.875C117.268 58.875 109.504 66.6387 109.504 76.1806C109.504 85.7224 117.268 93.4862 126.809 93.4862C136.351 93.4862 144.115 85.7224 144.115 76.1806C144.115 66.6387 136.351 58.875 126.809 58.875V58.875Z" fill="#0D0D0D"/>
<path fill-rule="evenodd" clip-rule="evenodd" d="M154.785 105.718C154.58 105.719 154.377 105.679 154.188 105.6C153.998 105.521 153.826 105.406 153.682 105.26L140.101 91.6793C136.406 94.8629 131.689 96.6126 126.812 96.6095C115.548 96.6095 106.383 87.4445 106.383 76.1808C106.383 64.9172 115.548 55.7522 126.812 55.7522C138.075 55.7522 147.24 64.9172 147.24 76.1808C147.24 81.0735 145.496 85.7643 142.31 89.4703L155.891 103.051C156.037 103.195 156.154 103.367 156.233 103.557C156.312 103.746 156.353 103.949 156.353 104.155C156.353 104.36 156.312 104.563 156.233 104.753C156.154 104.942 156.037 105.114 155.891 105.258C155.598 105.552 155.2 105.717 154.785 105.718ZM156.271 102.666L143.044 89.4382C146.108 85.697 147.782 81.0355 147.782 76.1808C147.782 64.6183 138.374 55.2109 126.812 55.2109C115.249 55.2109 105.842 64.6183 105.842 76.1808C105.842 87.7433 115.249 97.1505 126.811 97.1507C131.651 97.1538 136.336 95.4761 140.069 92.413L153.298 105.641C153.298 105.642 153.298 105.642 153.299 105.642C153.493 105.838 153.725 105.994 153.98 106.1C154.236 106.206 154.51 106.26 154.787 106.259M126.81 59.4165C117.567 59.4165 110.045 66.938 110.045 76.1808C110.045 85.4237 117.567 92.9452 126.81 92.9452C136.052 92.9452 143.574 85.4237 143.574 76.1808C143.574 66.938 136.052 59.4165 126.81 59.4165ZM109.504 76.1808C109.504 66.639 117.268 58.8752 126.81 58.8752C136.351 58.8752 144.115 66.639 144.115 76.1808C144.115 85.7227 136.351 93.4865 126.81 93.4865C117.268 93.4865 109.504 85.7227 109.504 76.1808Z" fill="#0D0D0D"/>
</g>
<defs>
<clipPath id="clip0">
<rect width="156" height="120" fill="white"/>
</clipPath>
</defs>
</svg>
