<svg width="129" height="21" viewBox="0 0 129 21" fill="none" xmlns="http://www.w3.org/2000/svg">
<path d="M0.339844 2.10547H3.87553L7.30645 15.0173L11.0778 2.10547H14.6397L18.4111 15.0173L21.842 2.10547H25.3777L20.323 20.4386H16.6302L12.8588 7.94589L9.08739 20.4386H5.39456L0.339844 2.10547Z" fill="#0D0D0D"/>
<path d="M32.073 7.00304C33.0508 7.00304 33.9413 7.18637 34.7444 7.55304C35.5476 7.90224 36.2373 8.39113 36.8135 9.01969C37.3896 9.64826 37.8349 10.3816 38.1492 11.2197C38.4809 12.0578 38.6468 12.957 38.6468 13.9173C38.6468 14.3363 38.6119 14.7204 38.542 15.0696H28.4064C28.6334 15.9601 29.0873 16.676 29.7683 17.2172C30.4667 17.741 31.3222 18.0029 32.3349 18.0029C32.9809 18.0029 33.5921 17.872 34.1682 17.6101C34.7619 17.3307 35.2071 16.9641 35.5039 16.5101L37.992 17.9768C37.3809 18.8672 36.5952 19.5569 35.6349 20.0458C34.6746 20.5347 33.5571 20.7791 32.2825 20.7791C31.2175 20.7791 30.2397 20.6045 29.3492 20.2553C28.4762 19.9061 27.7254 19.426 27.0969 18.8148C26.4858 18.1863 26.0056 17.453 25.6564 16.6149C25.3247 15.7768 25.1588 14.8688 25.1588 13.8911C25.1588 12.9133 25.3247 12.0054 25.6564 11.1673C26.0056 10.3292 26.477 9.60461 27.0707 8.9935C27.6818 8.3824 28.4151 7.90224 29.2707 7.55304C30.1262 7.18637 31.0603 7.00304 32.073 7.00304ZM35.5825 12.5292C35.4603 11.6736 35.0762 11.0102 34.4301 10.5387C33.7841 10.0673 32.9809 9.83159 32.0206 9.83159C31.5143 9.83159 31.0429 9.91016 30.6064 10.0673C30.1699 10.207 29.7857 10.399 29.454 10.6435C29.1222 10.8879 28.8603 11.176 28.6683 11.5078C28.4762 11.822 28.3715 12.1625 28.354 12.5292H35.5825Z" fill="#0D0D0D"/>
<path d="M39.6655 2.10547H42.9131V8.78398C43.3671 8.26017 43.9084 7.8324 44.5369 7.50066C45.1655 7.16891 45.8988 7.00304 46.7369 7.00304C47.7496 7.00304 48.6575 7.17764 49.4607 7.52685C50.2813 7.87605 50.971 8.36494 51.5297 8.9935C52.1059 9.60461 52.5424 10.3379 52.8392 11.1935C53.1535 12.0316 53.3107 12.9395 53.3107 13.9173C53.3107 14.895 53.1535 15.803 52.8392 16.6411C52.5424 17.4791 52.1059 18.2125 51.5297 18.841C50.971 19.4521 50.2813 19.9323 49.4607 20.2815C48.6575 20.6307 47.7496 20.8053 46.7369 20.8053C45.8988 20.8053 45.1655 20.6394 44.5369 20.3077C43.9084 19.9759 43.3671 19.5482 42.9131 19.0244V20.4386H39.6655V2.10547ZM46.6583 17.7672C47.1821 17.7672 47.6536 17.6712 48.0726 17.4791C48.5091 17.2696 48.8758 16.9903 49.1726 16.6411C49.4869 16.2919 49.7226 15.8815 49.8797 15.4101C50.0543 14.9387 50.1416 14.4411 50.1416 13.9173C50.1416 13.3935 50.0543 12.9046 49.8797 12.4506C49.7226 11.9792 49.4869 11.5689 49.1726 11.2197C48.8758 10.853 48.5091 10.5736 48.0726 10.3816C47.6536 10.1721 47.1821 10.0673 46.6583 10.0673C46.1171 10.0673 45.6194 10.1633 45.1655 10.3554C44.729 10.5475 44.3449 10.8181 44.0131 11.1673C43.6814 11.499 43.4195 11.9006 43.2274 12.372C43.0528 12.826 42.9655 13.3324 42.9655 13.8911C42.9655 14.4498 43.0528 14.9649 43.2274 15.4363C43.4195 15.9077 43.6814 16.318 44.0131 16.6672C44.3449 17.0164 44.729 17.2871 45.1655 17.4791C45.6194 17.6712 46.1171 17.7672 46.6583 17.7672Z" fill="#0D0D0D"/>
<path d="M56.4574 10.2506H54.2836V7.34352H56.4574V6.16496C56.4574 5.29195 56.5447 4.57608 56.7193 4.01735C56.9113 3.44117 57.182 2.9872 57.5312 2.65546C57.8978 2.32372 58.3343 2.09674 58.8407 1.97451C59.347 1.83483 59.9232 1.76499 60.5692 1.76499C60.8835 1.76499 61.2065 1.78245 61.5383 1.81737C61.8875 1.83483 62.2541 1.86102 62.6383 1.89594V4.85544C62.4113 4.83798 62.2018 4.82052 62.0097 4.80306C61.8176 4.7856 61.6256 4.77687 61.4335 4.77687C60.8573 4.77687 60.4208 4.89036 60.124 5.11734C59.8272 5.34433 59.6788 5.76337 59.6788 6.37448V7.34352H62.6121V10.2506H59.6788V20.4386H56.4574V10.2506Z" fill="#0D0D0D"/>
<path d="M70.3353 20.8053C69.375 20.8053 68.4758 20.6307 67.6377 20.2815C66.7997 19.9148 66.0663 19.4172 65.4378 18.7887C64.8092 18.1601 64.3116 17.4268 63.9449 16.5887C63.5957 15.7506 63.4211 14.8601 63.4211 13.9173C63.4211 12.9744 63.5957 12.084 63.9449 11.2459C64.3116 10.4078 64.8092 9.67445 65.4378 9.04588C66.0663 8.41732 66.7997 7.92843 67.6377 7.57923C68.4758 7.21257 69.375 7.02923 70.3353 7.02923C71.2782 7.02923 72.1599 7.21257 72.9806 7.57923C73.8186 7.92843 74.552 8.41732 75.1805 9.04588C75.8091 9.67445 76.298 10.4078 76.6472 11.2459C77.0138 12.084 77.1972 12.9744 77.1972 13.9173C77.1972 14.8601 77.0138 15.7506 76.6472 16.5887C76.298 17.4268 75.8091 18.1601 75.1805 18.7887C74.552 19.4172 73.8186 19.9148 72.9806 20.2815C72.1599 20.6307 71.2782 20.8053 70.3353 20.8053ZM70.3091 17.5577C70.8155 17.5577 71.2869 17.4617 71.7234 17.2696C72.1774 17.0776 72.5702 16.8244 72.902 16.5101C73.2337 16.1784 73.4956 15.7942 73.6877 15.3577C73.8798 14.9038 73.9758 14.4236 73.9758 13.9173C73.9758 13.4109 73.8798 12.9395 73.6877 12.503C73.4956 12.049 73.2337 11.6562 72.902 11.3244C72.5702 10.9927 72.1774 10.7308 71.7234 10.5387C71.2869 10.3467 70.8155 10.2506 70.3091 10.2506C69.8028 10.2506 69.3226 10.3467 68.8687 10.5387C68.4322 10.7308 68.0481 10.9927 67.7163 11.3244C67.402 11.6562 67.1489 12.049 66.9568 12.503C66.7647 12.9395 66.6687 13.4109 66.6687 13.9173C66.6687 14.4236 66.7647 14.9038 66.9568 15.3577C67.1489 15.7942 67.402 16.1784 67.7163 16.5101C68.0481 16.8244 68.4322 17.0776 68.8687 17.2696C69.3226 17.4617 69.8028 17.5577 70.3091 17.5577Z" fill="#0D0D0D"/>
<path d="M83.2097 20.4386C82.5637 20.5434 81.9613 20.5958 81.4026 20.5958C80.9311 20.5958 80.5034 20.5434 80.1192 20.4386C79.7351 20.3164 79.4034 20.1244 79.124 19.8625C78.8621 19.5831 78.6526 19.2077 78.4954 18.7363C78.3558 18.2649 78.2859 17.6712 78.2859 16.9553V2.10547H81.5335V16.7458C81.5335 17.1474 81.6557 17.3918 81.9002 17.4791C82.1621 17.549 82.5986 17.5403 83.2097 17.453V20.4386Z" fill="#0D0D0D"/>
<path d="M86.6449 4.30545C86.1735 4.30545 85.7632 4.13957 85.414 3.80783C85.0648 3.47609 84.8902 3.06577 84.8902 2.57689C84.8902 2.088 85.0648 1.67769 85.414 1.34595C85.7632 0.996745 86.1735 0.822144 86.6449 0.822144C87.1163 0.822144 87.5179 0.996745 87.8497 1.34595C88.1989 1.67769 88.3735 2.088 88.3735 2.57689C88.3735 3.06577 88.1989 3.47609 87.8497 3.80783C87.5179 4.13957 87.1163 4.30545 86.6449 4.30545ZM84.9949 7.34352H88.2163V20.4386H84.9949V7.34352Z" fill="#0D0D0D"/>
<path d="M97.0883 20.8053C96.128 20.8053 95.2288 20.6307 94.3907 20.2815C93.5526 19.9148 92.8193 19.4172 92.1907 18.7887C91.5621 18.1601 91.0645 17.4268 90.6979 16.5887C90.3486 15.7506 90.174 14.8601 90.174 13.9173C90.174 12.9744 90.3486 12.084 90.6979 11.2459C91.0645 10.4078 91.5621 9.67445 92.1907 9.04588C92.8193 8.41732 93.5526 7.92843 94.3907 7.57923C95.2288 7.21257 96.128 7.02923 97.0883 7.02923C98.0311 7.02923 98.9129 7.21257 99.7335 7.57923C100.572 7.92843 101.305 8.41732 101.933 9.04588C102.562 9.67445 103.051 10.4078 103.4 11.2459C103.767 12.084 103.95 12.9744 103.95 13.9173C103.95 14.8601 103.767 15.7506 103.4 16.5887C103.051 17.4268 102.562 18.1601 101.933 18.7887C101.305 19.4172 100.572 19.9148 99.7335 20.2815C98.9129 20.6307 98.0311 20.8053 97.0883 20.8053ZM97.0621 17.5577C97.5684 17.5577 98.0399 17.4617 98.4764 17.2696C98.9303 17.0776 99.3232 16.8244 99.6549 16.5101C99.9867 16.1784 100.249 15.7942 100.441 15.3577C100.633 14.9038 100.729 14.4236 100.729 13.9173C100.729 13.4109 100.633 12.9395 100.441 12.503C100.249 12.049 99.9867 11.6562 99.6549 11.3244C99.3232 10.9927 98.9303 10.7308 98.4764 10.5387C98.0399 10.3467 97.5684 10.2506 97.0621 10.2506C96.5557 10.2506 96.0756 10.3467 95.6216 10.5387C95.1851 10.7308 94.801 10.9927 94.4692 11.3244C94.155 11.6562 93.9018 12.049 93.7097 12.503C93.5177 12.9395 93.4216 13.4109 93.4216 13.9173C93.4216 14.4236 93.5177 14.9038 93.7097 15.3577C93.9018 15.7942 94.155 16.1784 94.4692 16.5101C94.801 16.8244 95.1851 17.0776 95.6216 17.2696C96.0756 17.4617 96.5557 17.5577 97.0621 17.5577Z" fill="#0D0D0D"/>
<path d="M124.4 20.4386L120.183 13.8649L115.941 20.4386H111.855L117.8 11.2459L111.881 2.10547H115.967L120.183 8.62684L124.374 2.10547H128.486L122.567 11.2459L128.512 20.4386H124.4Z" fill="#0D0D0D"/>
</svg>
